<?xml version="1.0" encoding="utf-8"?>
<!-- Generator: Adobe Illustrator 21.0.2, SVG Export Plug-In . SVG Version: 6.00 Build 0)  -->
<svg version="1.1" id="linee" xmlns="http://www.w3.org/2000/svg" xmlns:xlink="http://www.w3.org/1999/xlink" x="0px" y="0px"
	 viewBox="0 0 293.8 594.9" style="enable-background:new 0 0 293.8 594.9;" xml:space="preserve">
<style type="text/css">
	.st0{fill:none;stroke:#E50707;stroke-width:1.9572;stroke-miterlimit:10;}
	.st1{fill:none;stroke:#E50707;stroke-width:1.9572;stroke-miterlimit:10;stroke-dasharray:2.6096,1.9572;}
	.st2{fill:none;stroke:#FFD508;stroke-width:1.9572;stroke-miterlimit:10;stroke-dasharray:2.6096,1.9572;}
	.st3{fill:none;stroke:#FFD508;stroke-width:1.9572;stroke-miterlimit:10;}
	.st4{fill:none;stroke:#1F874E;stroke-width:1.9572;stroke-miterlimit:10;}
</style>
<g id="rosso">
	<line class="st0" x1="105.5" y1="87.4" x2="52.4" y2="87.4"/>
	<line class="st0" x1="159.2" y1="296.4" x2="103.8" y2="296.4"/>
	<line class="st0" x1="71.1" y1="278.3" x2="51" y2="278.3"/>
	<line class="st1" x1="122.4" y1="435.5" x2="35.1" y2="435.5"/>
	<line class="st0" x1="157.7" y1="474.9" x2="157.7" y2="465.5"/>
	<line class="st0" x1="221.4" y1="540.1" x2="68.2" y2="540.1"/>
	<line class="st0" x1="157.6" y1="470.2" x2="68.2" y2="470.2"/>
	<line class="st0" x1="35.9" y1="436.4" x2="35.9" y2="401.2"/>
	<line class="st0" x1="52.7" y1="122.7" x2="52.7" y2="51.7"/>
	<line class="st0" x1="72" y1="53.7" x2="72" y2="0"/>
	<line class="st0" x1="69.1" y1="541.1" x2="69.1" y2="469.3"/>
	<line class="st0" x1="121.8" y1="469.8" x2="121.8" y2="295.9"/>
	<line class="st0" x1="104.8" y1="296.1" x2="104.8" y2="261.5"/>
	<line class="st1" x1="52" y1="331.5" x2="52" y2="277.3"/>
	<line class="st1" x1="104.6" y1="158.3" x2="104.6" y2="87.1"/>
	<line class="st0" x1="70.2" y1="279.3" x2="70.2" y2="157.1"/>
	<line class="st0" x1="103.8" y1="157.4" x2="35.3" y2="157.4"/>
	<line class="st1" x1="69.2" y1="227" x2="35.7" y2="227"/>
	<line class="st1" x1="171.6" y1="52.7" x2="52.4" y2="52.7"/>
	<line class="st0" x1="105.8" y1="261.6" x2="69.5" y2="261.6"/>
	<line class="st0" x1="40.6" y1="400.8" x2="31.2" y2="400.8"/>
	<line class="st0" x1="57.5" y1="121.8" x2="48" y2="121.8"/>
	<line class="st0" x1="262.6" y1="143.9" x2="253.2" y2="143.9"/>
	<line class="st0" x1="56.6" y1="331.4" x2="47.1" y2="331.4"/>
	<line class="st0" x1="172.3" y1="48.3" x2="172.3" y2="57.8"/>
	<line class="st0" x1="35.2" y1="162.1" x2="35.2" y2="152.6"/>
	<line class="st0" x1="34.8" y1="231.9" x2="34.8" y2="222.4"/>
	<line class="st0" x1="134.2" y1="253.3" x2="134.2" y2="243.9"/>
	<line class="st0" x1="159.2" y1="301.1" x2="159.2" y2="291.7"/>
	<line class="st0" x1="188.3" y1="457.6" x2="241.6" y2="457.6"/>
	<line class="st0" x1="134.8" y1="248.6" x2="190.2" y2="248.6"/>
	<line class="st0" x1="210.4" y1="266.6" x2="242.9" y2="266.6"/>
	<line class="st1" x1="103.6" y1="122.4" x2="258.6" y2="122.4"/>
	<line class="st0" x1="258" y1="121.4" x2="258" y2="144"/>
	<line class="st0" x1="241.6" y1="423" x2="241.6" y2="492.2"/>
	<line class="st0" x1="172.1" y1="121.4" x2="172.1" y2="249.1"/>
	<line class="st0" x1="189.2" y1="247.6" x2="189.2" y2="283.5"/>
	<line class="st1" x1="241.8" y1="213.4" x2="241.8" y2="266.2"/>
	<line class="st1" x1="189.3" y1="386.7" x2="189.3" y2="457.9"/>
	<line class="st0" x1="211.4" y1="266.1" x2="211.4" y2="387.9"/>
	<line class="st0" x1="190.1" y1="387.7" x2="258.6" y2="387.7"/>
	<line class="st1" x1="213.1" y1="318" x2="259" y2="318"/>
	<line class="st0" x1="188.3" y1="283.3" x2="211.4" y2="283.3"/>
	<line class="st0" x1="236.6" y1="423.1" x2="246.1" y2="423.1"/>
	<line class="st0" x1="236.8" y1="492.2" x2="246.3" y2="492.2"/>
	<line class="st0" x1="237.1" y1="213.5" x2="246.6" y2="213.5"/>
	<line class="st0" x1="258.7" y1="383.3" x2="258.7" y2="392.7"/>
	<line class="st0" x1="259" y1="313.1" x2="259" y2="322.6"/>
	<line class="st1" x1="220.5" y1="539.2" x2="220.5" y2="594.9"/>
</g>
<g id="giallo">
	<line class="st2" x1="258.1" y1="70.5" x2="122" y2="70.5"/>
	<line class="st3" x1="53.5" y1="261.5" x2="34.7" y2="261.5"/>
	<line class="st3" x1="69.9" y1="296.3" x2="34.7" y2="296.3"/>
	<line class="st3" x1="70.6" y1="348.5" x2="34.8" y2="348.5"/>
	<line class="st3" x1="104.6" y1="383.1" x2="35.7" y2="383.1"/>
	<line class="st3" x1="105.5" y1="452.8" x2="34.8" y2="452.8"/>
	<line class="st3" x1="123" y1="487.6" x2="34.9" y2="487.6"/>
	<line class="st2" x1="122.8" y1="522.6" x2="35.7" y2="522.6"/>
	<line class="st2" x1="72" y1="557.5" x2="35.7" y2="557.5"/>
	<line class="st2" x1="223.7" y1="209.4" x2="52.6" y2="209.4"/>
	<line class="st3" x1="122.9" y1="139.6" x2="33.4" y2="139.6"/>
	<line class="st2" x1="121.6" y1="104.8" x2="34.6" y2="104.8"/>
	<line class="st3" x1="122.2" y1="138.6" x2="122.2" y2="210.3"/>
	<line class="st2" x1="104.5" y1="382.1" x2="104.5" y2="453.1"/>
	<line class="st2" x1="35.7" y1="261.4" x2="35.7" y2="297.2"/>
	<line class="st3" x1="70" y1="295.3" x2="70" y2="349.5"/>
	<line class="st3" x1="35.8" y1="347.6" x2="35.8" y2="384.1"/>
	<line class="st3" x1="72" y1="556.6" x2="72" y2="594.9"/>
	<line class="st3" x1="35.8" y1="452.2" x2="35.8" y2="488.6"/>
	<line class="st3" x1="35.8" y1="521.7" x2="35.8" y2="558.5"/>
	<line class="st3" x1="122.5" y1="486.6" x2="122.5" y2="523.6"/>
	<line class="st3" x1="146.6" y1="0" x2="146.6" y2="71.5"/>
	<line class="st3" x1="34.4" y1="103.8" x2="34.4" y2="140.6"/>
	<line class="st3" x1="52.4" y1="208.4" x2="52.4" y2="261.7"/>
	<line class="st3" x1="122.4" y1="69.5" x2="122.4" y2="105.8"/>
	<line class="st2" x1="171.1" y1="474.5" x2="258.8" y2="474.5"/>
	<line class="st3" x1="240.5" y1="283.4" x2="259.2" y2="283.4"/>
	<line class="st3" x1="224" y1="248.7" x2="259.2" y2="248.7"/>
	<line class="st3" x1="222.8" y1="196.5" x2="258.3" y2="196.5"/>
	<line class="st3" x1="197" y1="161.9" x2="258.3" y2="161.9"/>
	<line class="st3" x1="197" y1="92.2" x2="258.3" y2="92.2"/>
	<line class="st2" x1="172.3" y1="335.7" x2="241.3" y2="335.7"/>
	<line class="st3" x1="170.7" y1="405.3" x2="259" y2="405.3"/>
	<line class="st2" x1="172.3" y1="440.2" x2="259.4" y2="440.2"/>
	<line class="st3" x1="123" y1="506.4" x2="259.6" y2="506.4"/>
	<line class="st3" x1="171.7" y1="405.3" x2="171.7" y2="334.6"/>
	<line class="st2" x1="197.9" y1="162.9" x2="197.9" y2="91.9"/>
	<line class="st2" x1="258.3" y1="283.6" x2="258.3" y2="247.8"/>
	<line class="st3" x1="223.8" y1="249.7" x2="223.8" y2="195.5"/>
	<line class="st3" x1="258.1" y1="197.5" x2="258.1" y2="160.9"/>
	<line class="st3" x1="258.1" y1="93.2" x2="258.1" y2="69.5"/>
	<line class="st3" x1="259.4" y1="441.2" x2="259.4" y2="404.4"/>
	<line class="st3" x1="258.8" y1="507.4" x2="258.8" y2="473.4"/>
	<line class="st3" x1="241.4" y1="336.6" x2="241.4" y2="283.3"/>
	<line class="st3" x1="171.9" y1="475.5" x2="171.9" y2="439.2"/>
</g>
<g id="verde">
	<line class="st4" x1="146.5" y1="594.9" x2="146.5" y2="335.7"/>
	<line class="st4" x1="220.5" y1="0" x2="220.5" y2="185.4"/>
	<line class="st4" x1="95.6" y1="185.4" x2="221.5" y2="185.4"/>
	<line class="st4" x1="95.6" y1="336.6" x2="145.9" y2="336.6"/>
	<line class="st4" x1="96.5" y1="184.4" x2="96.5" y2="337.6"/>
</g>
</svg>
