<svg id="linee" xmlns="http://www.w3.org/2000/svg" viewBox="0 0 293.8 594.86">
  <defs>
    <style>
      .cls-1, .cls-2, .cls-3, .cls-4, .cls-5 {
        fill: none;
        stroke-miterlimit: 10;
        stroke-width: 1.96px;
      }

      .cls-1, .cls-2 {
        stroke: #e50707;
      }

      .cls-2, .cls-3 {
        stroke-dasharray: 2.61 1.96;
      }

      .cls-3, .cls-4 {
        stroke: #ffd508;
      }

      .cls-5 {
        stroke: #1f874e;
      }
    </style>
  </defs>
  <title>floor2</title>
  <g id="rosso">
    <line class="cls-1" x1="105.54" y1="87.42" x2="52.37" y2="87.42"/>
    <line class="cls-1" x1="159.17" y1="296.38" x2="103.84" y2="296.38"/>
    <line class="cls-1" x1="71.09" y1="278.31" x2="51" y2="278.31"/>
    <line class="cls-2" x1="122.37" y1="435.48" x2="35.08" y2="435.48"/>
    <line class="cls-1" x1="157.73" y1="474.95" x2="157.73" y2="465.49"/>
    <line class="cls-1" x1="221.4" y1="540.12" x2="68.16" y2="540.12"/>
    <line class="cls-1" x1="157.6" y1="470.25" x2="68.16" y2="470.25"/>
    <line class="cls-1" x1="35.93" y1="436.39" x2="35.93" y2="401.16"/>
    <line class="cls-1" x1="52.69" y1="122.72" x2="52.69" y2="51.74"/>
    <line class="cls-1" x1="72.04" y1="53.69" x2="72.04"/>
    <line class="cls-1" x1="69.13" y1="541.1" x2="69.13" y2="469.27"/>
    <line class="cls-1" x1="121.85" y1="469.79" x2="121.85" y2="295.93"/>
    <line class="cls-1" x1="104.82" y1="296.12" x2="104.82" y2="261.48"/>
    <line class="cls-2" x1="52.04" y1="331.55" x2="52.04" y2="277.33"/>
    <line class="cls-2" x1="104.56" y1="158.34" x2="104.56" y2="87.1"/>
    <line class="cls-1" x1="70.18" y1="279.29" x2="70.18" y2="157.1"/>
    <line class="cls-1" x1="103.78" y1="157.36" x2="35.27" y2="157.36"/>
    <line class="cls-2" x1="69.2" y1="226.97" x2="35.67" y2="226.97"/>
    <line class="cls-2" x1="171.63" y1="52.71" x2="52.37" y2="52.71"/>
    <line class="cls-1" x1="105.8" y1="261.61" x2="69.53" y2="261.61"/>
    <line class="cls-1" x1="40.62" y1="400.83" x2="31.16" y2="400.83"/>
    <line class="cls-1" x1="57.46" y1="121.8" x2="48" y2="121.8"/>
    <line class="cls-1" x1="262.64" y1="143.85" x2="253.18" y2="143.85"/>
    <line class="cls-1" x1="56.61" y1="331.42" x2="47.15" y2="331.42"/>
    <line class="cls-1" x1="172.28" y1="48.34" x2="172.28" y2="57.8"/>
    <line class="cls-1" x1="35.21" y1="162.06" x2="35.21" y2="152.6"/>
    <line class="cls-1" x1="34.82" y1="231.86" x2="34.82" y2="222.4"/>
    <line class="cls-1" x1="134.24" y1="253.33" x2="134.24" y2="243.87"/>
    <line class="cls-1" x1="159.23" y1="301.15" x2="159.23" y2="291.69"/>
    <line class="cls-1" x1="188.33" y1="457.59" x2="241.56" y2="457.59"/>
    <line class="cls-1" x1="134.77" y1="248.56" x2="190.15" y2="248.56"/>
    <line class="cls-1" x1="210.38" y1="266.57" x2="242.87" y2="266.57"/>
    <line class="cls-2" x1="103.58" y1="122.39" x2="258.59" y2="122.39"/>
    <line class="cls-1" x1="258" y1="121.41" x2="258" y2="143.98"/>
    <line class="cls-1" x1="241.56" y1="422.95" x2="241.56" y2="492.24"/>
    <line class="cls-1" x1="172.15" y1="121.41" x2="172.15" y2="249.09"/>
    <line class="cls-1" x1="189.24" y1="247.59" x2="189.24" y2="283.47"/>
    <line class="cls-2" x1="241.82" y1="213.4" x2="241.82" y2="266.18"/>
    <line class="cls-2" x1="189.31" y1="386.68" x2="189.31" y2="457.92"/>
    <line class="cls-1" x1="211.36" y1="266.11" x2="211.36" y2="387.85"/>
    <line class="cls-1" x1="190.09" y1="387.66" x2="258.59" y2="387.66"/>
    <line class="cls-2" x1="213.05" y1="318.04" x2="259.05" y2="318.04"/>
    <line class="cls-1" x1="188.26" y1="283.34" x2="211.36" y2="283.34"/>
    <line class="cls-1" x1="236.6" y1="423.15" x2="246.06" y2="423.15"/>
    <line class="cls-1" x1="236.8" y1="492.24" x2="246.33" y2="492.24"/>
    <line class="cls-1" x1="237.13" y1="213.53" x2="246.59" y2="213.53"/>
    <line class="cls-1" x1="258.66" y1="383.28" x2="258.66" y2="392.74"/>
    <line class="cls-1" x1="259.05" y1="313.09" x2="259.05" y2="322.61"/>
    <line class="cls-2" x1="220.5" y1="539.21" x2="220.5" y2="594.86"/>
  </g>
  <g id="giallo">
    <line class="cls-3" x1="258.07" y1="70.52" x2="121.98" y2="70.52"/>
    <line class="cls-4" x1="53.48" y1="261.55" x2="34.69" y2="261.55"/>
    <line class="cls-4" x1="69.85" y1="296.25" x2="34.69" y2="296.25"/>
    <line class="cls-4" x1="70.57" y1="348.51" x2="34.82" y2="348.51"/>
    <line class="cls-4" x1="104.56" y1="383.09" x2="35.67" y2="383.09"/>
    <line class="cls-4" x1="105.47" y1="452.83" x2="34.82" y2="452.83"/>
    <line class="cls-4" x1="123.02" y1="487.6" x2="34.95" y2="487.6"/>
    <line class="cls-3" x1="122.76" y1="522.64" x2="35.67" y2="522.64"/>
    <line class="cls-3" x1="72.04" y1="557.54" x2="35.67" y2="557.54"/>
    <line class="cls-3" x1="223.69" y1="209.35" x2="52.56" y2="209.35"/>
    <line class="cls-4" x1="122.89" y1="139.61" x2="33.45" y2="139.61"/>
    <line class="cls-3" x1="121.59" y1="104.78" x2="34.56" y2="104.78"/>
    <line class="cls-4" x1="122.17" y1="138.63" x2="122.17" y2="210.27"/>
    <line class="cls-3" x1="104.49" y1="382.11" x2="104.49" y2="453.09"/>
    <line class="cls-3" x1="35.67" y1="261.35" x2="35.67" y2="297.23"/>
    <line class="cls-4" x1="70.05" y1="295.28" x2="70.05" y2="349.49"/>
    <line class="cls-4" x1="35.8" y1="347.6" x2="35.8" y2="384.07"/>
    <line class="cls-4" x1="72.04" y1="556.56" x2="72.04" y2="594.86"/>
    <line class="cls-4" x1="35.8" y1="452.24" x2="35.8" y2="488.58"/>
    <line class="cls-4" x1="35.8" y1="521.66" x2="35.8" y2="558.52"/>
    <line class="cls-4" x1="122.5" y1="486.62" x2="122.5" y2="523.55"/>
    <line class="cls-4" x1="146.57" x2="146.57" y2="71.54"/>
    <line class="cls-4" x1="34.43" y1="103.8" x2="34.43" y2="140.59"/>
    <line class="cls-4" x1="52.43" y1="208.38" x2="52.43" y2="261.68"/>
    <line class="cls-4" x1="122.37" y1="69.55" x2="122.37" y2="105.75"/>
    <line class="cls-3" x1="171.1" y1="474.49" x2="258.79" y2="474.49"/>
    <line class="cls-4" x1="240.45" y1="283.4" x2="259.18" y2="283.4"/>
    <line class="cls-4" x1="224.01" y1="248.69" x2="259.18" y2="248.69"/>
    <line class="cls-4" x1="222.84" y1="196.5" x2="258.26" y2="196.5"/>
    <line class="cls-4" x1="196.96" y1="161.93" x2="258.26" y2="161.93"/>
    <line class="cls-4" x1="196.96" y1="92.18" x2="258.26" y2="92.18"/>
    <line class="cls-3" x1="172.28" y1="335.66" x2="241.3" y2="335.66"/>
    <line class="cls-4" x1="170.71" y1="405.34" x2="259.05" y2="405.34"/>
    <line class="cls-3" x1="172.28" y1="440.17" x2="259.37" y2="440.17"/>
    <line class="cls-4" x1="123.02" y1="506.39" x2="259.63" y2="506.39"/>
    <line class="cls-4" x1="171.69" y1="405.34" x2="171.69" y2="334.62"/>
    <line class="cls-3" x1="197.89" y1="162.9" x2="197.89" y2="91.92"/>
    <line class="cls-3" x1="258.26" y1="283.6" x2="258.26" y2="247.78"/>
    <line class="cls-4" x1="223.82" y1="249.74" x2="223.82" y2="195.52"/>
    <line class="cls-4" x1="258.07" y1="197.48" x2="258.07" y2="160.95"/>
    <line class="cls-4" x1="258.07" y1="93.16" x2="258.07" y2="69.55"/>
    <line class="cls-4" x1="259.44" y1="441.15" x2="259.44" y2="404.36"/>
    <line class="cls-4" x1="258.79" y1="507.37" x2="258.79" y2="473.45"/>
    <line class="cls-4" x1="241.43" y1="336.64" x2="241.43" y2="283.34"/>
    <line class="cls-4" x1="171.89" y1="475.47" x2="171.89" y2="439.19"/>
  </g>
  <g id="verde">
    <line class="cls-5" x1="146.49" y1="594.86" x2="146.49" y2="335.66"/>
    <line class="cls-5" x1="220.5" x2="220.5" y2="185.41"/>
    <line class="cls-5" x1="95.56" y1="185.41" x2="221.45" y2="185.41"/>
    <line class="cls-5" x1="95.56" y1="336.64" x2="145.86" y2="336.64"/>
    <line class="cls-5" x1="96.47" y1="184.43" x2="96.47" y2="337.55"/>
  </g>
</svg>
