<svg id="Linee" xmlns="http://www.w3.org/2000/svg" viewBox="0 0 259.51 911.77">
  <defs>
    <style>
      .cls-1, .cls-2, .cls-3, .cls-4, .cls-5, .cls-6 {
        fill: none;
        stroke-miterlimit: 10;
        stroke-width: 3px;
      }

      .cls-1, .cls-3 {
        stroke: #e50707;
      }

      .cls-2 {
        stroke: #1a46e5;
      }

      .cls-3, .cls-4 {
        stroke-dasharray: 4 3;
      }

      .cls-4, .cls-5 {
        stroke: #ffd508;
      }

      .cls-6 {
        stroke: #1f874e;
      }
    </style>
  </defs>
  <title>Percorsi per sito</title>
  <g>
    <line class="cls-1" x1="177.38" y1="133.96" x2="95.86" y2="133.96"/>
    <line class="cls-1" x1="259.51" y1="454.33" x2="174.66" y2="454.33"/>
    <line class="cls-2" x1="40.69" y1="453.05" y2="453.05"/>
    <line class="cls-1" x1="124.61" y1="426.79" x2="93.97" y2="426.79"/>
    <line class="cls-3" x1="203.23" y1="667.45" x2="69.36" y2="667.45"/>
    <line class="cls-1" x1="230.1" y1="862.24" x2="230.1" y2="847.72"/>
    <line class="cls-1" x1="257.66" y1="728.24" x2="257.66" y2="713.72"/>
    <line class="cls-3" x1="226.25" y1="854.61" x2="148.7" y2="854.61"/>
    <line class="cls-1" x1="150.3" y1="827.93" x2="120.11" y2="827.93"/>
    <line class="cls-1" x1="257.16" y1="720.78" x2="120.13" y2="720.78"/>
    <line class="cls-4" x1="203.86" y1="108.09" x2="69.37" y2="108.09"/>
    <line class="cls-5" x1="96.37" y1="400.93" x2="70.27" y2="400.93"/>
    <line class="cls-5" x1="122.72" y1="454.13" x2="68.82" y2="454.13"/>
    <line class="cls-5" x1="123.84" y1="534.19" x2="70.27" y2="534.19"/>
    <line class="cls-5" x1="175.93" y1="587.18" x2="70.27" y2="587.18"/>
    <line class="cls-5" x1="175.99" y1="694.09" x2="70.27" y2="694.09"/>
    <line class="cls-5" x1="204.21" y1="747.4" x2="69.19" y2="747.4"/>
    <line class="cls-4" x1="203.83" y1="801.09" x2="70.27" y2="801.09"/>
    <line class="cls-4" x1="123.87" y1="854.58" x2="70.27" y2="854.58"/>
    <line class="cls-4" x1="259.18" y1="320.91" x2="96.24" y2="320.91"/>
    <line class="cls-5" x1="204.02" y1="214.04" x2="69.03" y2="214.04"/>
    <line class="cls-4" x1="202" y1="160.63" x2="68.54" y2="160.63"/>
    <line class="cls-5" x1="124.03" y1="54.12" x2="68.16" y2="54.12"/>
    <line class="cls-1" x1="149.05" y1="911.77" x2="149.05" y2="826.53"/>
    <line class="cls-1" x1="70.65" y1="668.94" x2="70.65" y2="614.92"/>
    <line class="cls-1" x1="95.81" y1="187.06" x2="95.81"/>
    <line class="cls-1" x1="121.57" y1="828.46" x2="121.57" y2="720.16"/>
    <line class="cls-1" x1="202.39" y1="720.14" x2="202.39" y2="453.59"/>
    <line class="cls-1" x1="176.06" y1="454" x2="176.06" y2="400.86"/>
    <line class="cls-3" x1="95.37" y1="508.24" x2="95.37" y2="427.34"/>
    <line class="cls-3" x1="175.88" y1="242.68" x2="175.88" y2="133.5"/>
    <line class="cls-1" x1="123.23" y1="427.48" x2="123.23" y2="240.85"/>
    <line class="cls-2" x1="41.12" y1="911.77" x2="41.12"/>
    <line class="cls-5" x1="202.87" y1="214.09" x2="202.87" y2="322.32"/>
    <line class="cls-4" x1="175.76" y1="585.69" x2="175.76" y2="694.5"/>
    <line class="cls-4" x1="70.27" y1="400.62" x2="70.27" y2="455.59"/>
    <line class="cls-5" x1="122.98" y1="452.6" x2="122.98" y2="535.66"/>
    <line class="cls-5" x1="70.53" y1="532.81" x2="70.53" y2="588.67"/>
    <line class="cls-5" x1="123.3" y1="853.16" x2="123.3" y2="911.77"/>
    <line class="cls-5" x1="70.53" y1="693.21" x2="70.53" y2="747.19"/>
    <line class="cls-5" x1="70.53" y1="799.6" x2="70.53" y2="856"/>
    <line class="cls-5" x1="203.41" y1="746.69" x2="203.41" y2="802.54"/>
    <line class="cls-5" x1="123.02" x2="123.02" y2="55.16"/>
    <line class="cls-5" x1="68.44" y1="160.94" x2="68.44" y2="215.46"/>
    <line class="cls-5" x1="69.37" y1="52.72" x2="69.37" y2="109.63"/>
    <line class="cls-5" x1="96.05" y1="319.41" x2="96.05" y2="401.09"/>
    <line class="cls-5" x1="202.59" y1="108.07" x2="202.59" y2="162.21"/>
    <line class="cls-1" x1="174.71" y1="241.19" x2="69.73" y2="241.19"/>
    <line class="cls-3" x1="121.71" y1="347.89" x2="70.27" y2="347.89"/>
    <line class="cls-3" x1="256.91" y1="80.81" x2="95.81" y2="80.81"/>
    <line class="cls-1" x1="177.13" y1="401.03" x2="121.57" y2="401.03"/>
    <line class="cls-6" x1="95.11" y1="911.77" x2="95.11" y2="613.17"/>
    <line class="cls-6" x1="259.23" y1="561" x2="149.99" y2="561"/>
    <line class="cls-6" x1="150.47" y1="614.24" x2="93.74" y2="614.24"/>
    <line class="cls-1" x1="76.51" y1="614.38" x2="61.99" y2="614.38"/>
    <line class="cls-1" x1="103.4" y1="186.73" x2="88.88" y2="186.73"/>
    <line class="cls-1" x1="103.4" y1="508.05" x2="88.88" y2="508.05"/>
    <line class="cls-1" x1="257.47" y1="74.11" x2="257.47" y2="88.63"/>
    <line class="cls-1" x1="69.6" y1="247.84" x2="69.6" y2="233.32"/>
    <line class="cls-1" x1="68.97" y1="355.42" x2="68.97" y2="340.9"/>
    <line class="cls-6" x1="149.72" y1="615.74" x2="149.72"/>
  </g>
</svg>
